<svg xmlns="http://www.w3.org/2000/svg" viewBox="0 0 1400 1200" width="1400" height="1200"><defs><style>.node-rect { fill: #fff; stroke: #333; stroke-width: 2px; rx: 5; } .start-end { fill: #333; stroke: #333; stroke-width: 2px; fill-opacity: 0.1; } .data-phase { fill: #e1f5fe; stroke: #01579b; } .process-phase { fill: #f3e5f5; stroke: #4a148c; } .training-phase { fill: #e8f5e8; stroke: #1b5e20; } .evaluation-phase { fill: #fff3e0; stroke: #e65100; } .deployment-phase { fill: #fce4ec; stroke: #880e4f; } .implementation-phase { fill: #f1f8e9; stroke: #33691e; } .subroutine { fill: #f5f5f5; stroke: #666; stroke-width: 1px; stroke-dasharray: 5,5; rx: 5; } .node-text { font-family: Arial, sans-serif; font-size: 12px; fill: #333; text-anchor: middle; dominant-baseline: middle; } .node-title { font-family: Arial, sans-serif; font-size: 12px; font-weight: bold; fill: #333; text-anchor: middle; dominant-baseline: middle; } .edge-path { stroke: #666; stroke-width: 2px; fill: none; marker-end: url(#arrowhead); } .edge-label { font-family: Arial, sans-serif; font-size: 11px; fill: #333; text-anchor: middle; }</style><marker id="arrowhead" markerWidth="10" markerHeight="7" refX="9" refY="3.5" orient="auto"><polygon points="0 0, 10 3.5, 0 7" fill="#666"/></marker></defs><rect x="0" y="0" width="1400" height="1200" fill="white" stroke="none"/><g class="workflow-diagram"><g class="start-node"><rect x="50" y="50" width="200" height="60" class="start-end"/><text x="150" y="32" class="node-title" fill="white">START: Amharic TTS Training</text><text x="150" y="48" class="node-title" fill="white" style="font-size: 10px;">Pipeline Initialization</text></g><g class="data-collection"><rect x="350" y="40" width="220" height="80" class="node-rect data-phase"/><text x="460" y="65" class="node-title">Data Collection</text><text x="460" y="82" class="node-text">Audio Files (WAV/FLAC)</text><text x="460" y="97" class="node-text">Amharic Text (.txt/.json)</text><text x="460" y="112" class="node-text">Speaker Information</text></g><g class="data-validation"><rect x="650" y="40" width="200" height="60" class="node-rect data-phase"/><text x="750" y="65" class="node-title">Data Validation</text><text x="750" y="82" class="node-text">Quality checks and filtering</text></g><g class="text-processing"><rect x="950" y="40" width="220" height="80" class="node-rect process-phase"/><text x="1060" y="65" class="node-title">Text Processing</text><text x="1060" y="82" class="node-text">Amharic normalization</text><text x="1060" y="97" class="node-text">Unicode optimization</text><text x="1060" y="112" class="node-text">Script handling</text></g><g class="vocab-training"><rect x="1250" y="40" width="200" height="80" class="node-rect process-phase"/><text x="1350" y="65" class="node-title">Vocabulary Training</text><text x="1350" y="82" class="node-text">SentencePiece BPE</text><text x="1350" y="97" class="node-text">8K Amharic tokens</text><text x="1350" y="112" class="node-text">99.9 percent coverage</text></g><g class="data-preparation"><rect x="50" y="180" width="220" height="100" class="node-rect data-phase"/><text x="160" y="205" class="node-title">Data Preparation</text><text x="160" y="222" class="node-text">Audio-Text Pairing</text><text x="160" y="237" class="node-text">Train/Val Split (80/10/10)</text><text x="160" y="252" class="node-text">MEL Extraction (24kHz)</text><text x="160" y="267" class="node-text">Manifest Generation</text></g><g class="model-setup"><rect x="370" y="180" width="220" height="80" class="node-rect process-phase"/><text x="480" y="205" class="node-title">Model Setup</text><text x="480" y="222" class="node-text">Load IndexTTS2 Base</text><text x="480" y="237" class="node-text">Adapt for Amharic</text><text x="480" y="252" class="node-text">Vocab Size Adjustment</text></g><g class="configuration"><rect x="690" y="180" width="200" height="60" class="node-rect training-phase"/><text x="790" y="205" class="node-title">Configuration</text><text x="790" y="222" class="node-text">Load amharic_config.yaml</text></g><g class="strategy-selection"><rect x="980" y="180" width="200" height="80" class="node-rect training-phase"/><text x="1080" y="205" class="node-title">Training Strategy</text><text x="1080" y="222" class="node-text">Choose LoRA vs Full Training</text></g><g class="lora-training"><rect x="1250" y="160" width="180" height="100" class="node-rect training-phase"/><text x="1340" y="185" class="node-title">LoRA Training</text><text x="1340" y="202" class="node-text">Rank: 16</text><text x="1340" y="217" class="node-text">Alpha: 16.0</text><text x="1340" y="232" class="node-text">0.1 percent trainable params</text><text x="1340" y="247" class="node-text">99.9 percent efficiency</text></g><g class="full-training"><rect x="1250" y="300" width="180" height="80" class="node-rect training-phase"/><text x="1340" y="325" class="node-title">Full Training</text><text x="1340" y="342" class="node-text">All parameters</text><text x="1340" y="357" class="node-text">Multi-GPU required</text><text x="1340" y="372" class="node-text">Maximum quality</text></g><g class="training-loop"><rect x="50" y="340" width="220" height="120" class="node-rect training-phase"/><text x="160" y="365" class="node-title">Training Loop</text><text x="160" y="382" class="node-text">Mixed precision</text><text x="160" y="397" class="node-text">Gradient checkpointing</text><text x="160" y="412" class="node-text">Learning rate scheduling</text><text x="160" y="427" class="node-text">Checkpoint saving</text><text x="160" y="442" class="node-text">Resume capability</text></g><g class="three-stage"><rect x="370" y="340" width="220" height="80" class="node-rect training-phase"/><text x="480" y="365" class="node-title">Three-Stage Training</text><text x="480" y="382" class="node-text">Enhanced IndexTTS2</text><text x="480" y="397" class="node-text">Stage 1: Basic Alignment</text><text x="480" y="412" class="node-text">Stage 2: Disentanglement</text></g><g class="monitoring"><rect x="690" y="340" width="200" height="100" class="node-rect training-phase"/><text x="790" y="365" class="node-title">Monitoring and Logging</text><text x="790" y="382" class="node-text">Loss tracking</text><text x="790" y="397" class="node-text">TensorBoard</text><text x="790" y="412" class="node-text">Weights and Biases</text><text x="790" y="427" class="node-text">Real-time metrics</text></g><g class="convergence"><rect x="980" y="340" width="200" height="80" class="node-rect training-phase"/><text x="1080" y="365" class="node-title">Model Convergence</text><text x="1080" y="382" class="node-text">Validation metrics</text><text x="1080" y="397" class="node-text">Early stopping</text><text x="1080" y="412" class="node-text">Best model save</text></g><g class="validation"><rect x="1250" y="440" width="200" height="60" class="node-rect training-phase"/><text x="1350" y="465" class="node-title">Validation Loop</text><text x="1350" y="482" class="node-text">Epoch-wise evaluation</text></g><g class="evaluation"><rect x="50" y="520" width="220" height="120" class="node-rect evaluation-phase"/><text x="160" y="545" class="node-title">Model Evaluation</text><text x="160" y="562" class="node-text">MOS scores</text><text x="160" y="577" class="node-text">Amharic quality metrics</text><text x="160" y="592" class="node-text">Speaker similarity</text><text x="160" y="607" class="node-text">Script coverage (99.9 percent)</text><text x="160" y="622" class="node-text">Speech naturalness</text></g><g class="quality-tests"><rect x="370" y="520" width="520" height="120" class="node-rect evaluation-phase"/><text x="630" y="545" class="node-title">Quality Assessment</text><text x="630" y="562" class="node-text">Speech Quality: Naturalness assessment</text><text x="630" y="577" class="node-text">Emotion Accuracy: Emotion expression test</text><text x="630" y="592" class="node-text">Duration Control: Timing accuracy test</text><text x="630" y="607" class="node-text">Script Coverage: Verify 99.9 percent coverage</text><text x="630" y="622" class="node-text">Speaker Adaptation: Multi-speaker test</text></g><g class="export"><rect x="50" y="700" width="200" height="80" class="node-rect deployment-phase"/><text x="150" y="725" class="node-title">Model Export</text><text x="150" y="742" class="node-text">Save final checkpoint</text></g><g class="deployment"><rect x="350" y="700" width="220" height="120" class="node-rect deployment-phase"/><text x="460" y="725" class="node-title">Deployment Setup</text><text x="460" y="742" class="node-text">Inference config</text><text x="460" y="757" class="node-text">Vocoder integration</text><text x="460" y="772" class="node-text">API endpoints</text><text x="460" y="787" class="node-text">Model optimization</text><text x="460" y="802" class="node-text">Production deployment</text></g><g class="web-interface"><rect x="670" y="700" width="220" height="100" class="node-rect deployment-phase"/><text x="780" y="725" class="node-title">Web Interface</text><text x="780" y="742" class="node-text">Gradio UI</text><text x="780" y="757" class="node-text">Real-time inference</text><text x="780" y="772" class="node-text">Interactive testing</text><text x="780" y="787" class="node-text">Voice customization</text></g><g class="metrics"><rect x="980" y="700" width="200" height="80" class="node-rect deployment-phase"/><text x="1080" y="725" class="node-title">Production Metrics</text><text x="1080" y="742" class="node-text">Latency monitoring</text><text x="1080" y="757" class="node-text">Quality tracking</text><text x="1080" y="772" class="node-text">Usage analytics</text></g><g class="complete"><rect x="1250" y="720" width="200" height="60" class="start-end"/><text x="1350" y="742" class="node-title" fill="white">COMPLETE</text><text x="1350" y="758" class="node-title" fill="white" style="font-size: 10px;">Amharic TTS Ready!</text></g><g class="implementation"><rect x="50" y="880" width="400" height="140" class="subroutine"/><text x="250" y="905" class="node-title" fill="#666">Implementation Files</text><text x="250" y="922" class="node-text" fill="#666">amharic_front.py (277 lines) - Amharic text processing</text><text x="250" y="937" class="node-text" fill="#666">train_amharic_vocabulary.py (311 lines) - Vocabulary training</text><text x="250" y="952" class="node-text" fill="#666">prepare_amharic_data.py (478 lines) - Dataset preparation</text><text x="250" y="967" class="node-text" fill="#666">finetune_amharic.py (531+ lines) - LoRA fine-tuning system</text><text x="250" y="982" class="node-text" fill="#666">evaluate_amharic.py (445 lines) - Comprehensive evaluation</text><text x="250" y="997" class="node-text" fill="#666">enhanced_amharic_model.py (685 lines) - IndexTTS2 integration</text><text x="250" y="1012" class="node-text" fill="#666">amharic_config.yaml (233 lines) - Production configuration</text></g><g class="performance"><rect x="500" y="880" width="350" height="140" class="subroutine"/><text x="675" y="905" class="node-title" fill="#666">Performance Comparison</text><text x="675" y="922" class="node-text" fill="#666">LoRA (Recommended): 99.9 percent efficiency, 3-5x faster, 8-12GB VRAM</text><text x="675" y="937" class="node-text" fill="#666">Full Training: Maximum quality, Multi-GPU, 24-32GB VRAM</text><text x="675" y="952" class="node-text" fill="#666">Script Coverage: 99.9 percent Amharic character coverage</text><text x="675" y="967" class="node-text" fill="#666">Training Time: 2-3 days (LoRA) vs 5-7 days (Full)</text><text x="675" y="982" class="node-text" fill="#666">Quality: 95 percent (LoRA) vs 100 percent (Full training)</text><text x="675" y="997" class="node-text" fill="#666">Cost: 50-100 USD (LoRA) vs 200-500 USD (Full training)</text><text x="675" y="1012" class="node-text" fill="#666">Memory Savings: 70 percent reduction with LoRA approach</text></g><g class="benefits"><rect x="900" y="880" width="400" height="140" class="subroutine"/><text x="1100" y="905" class="node-title" fill="#666">Ethiopian AI Impact</text><text x="1100" y="922" class="node-text" fill="#666">Research Accessibility: Single GPU feasibility</text><text x="1100" y="937" class="node-text" fill="#666">Cost Efficiency: Affordable cloud training</text><text x="1100" y="952" class="node-text" fill="#666">Script Support: Native Amharic script processing</text><text x="1100" y="967" class="node-text" fill="#666">IndexTTS2 Integration: Cutting-edge architecture</text><text x="1100" y="982" class="node-text" fill="#666">Production Ready: Real-time inference capability</text><text x="1100" y="997" class="node-text" fill="#666">Web Interface: Gradio UI for testing</text><text x="1100" y="1012" class="node-text" fill="#666">Academic Impact: Advanced TTS for Ethiopian research</text></g><path d="M 250 80 L 350 80" class="edge-path"/><path d="M 570 80 L 650 80" class="edge-path"/><path d="M 850 80 L 950 80" class="edge-path"/><path d="M 1170 80 L 1250 80" class="edge-path"/><path d="M 1350 120 L 1350 160" class="edge-path"/><path d="M 1350 260 L 1350 300" class="edge-path"/><path d="M 270 230 L 370 230" class="edge-path"/><path d="M 590 230 L 690 230" class="edge-path"/><path d="M 890 230 L 980 230" class="edge-path"/><path d="M 1180 230 L 1250 230" class="edge-path"/><path d="M 1350 380 L 1350 440" class="edge-path"/><path d="M 270 400 L 370 400" class="edge-path"/><path d="M 590 390 L 690 390" class="edge-path"/><path d="M 890 380 L 980 380" class="edge-path"/><path d="M 1180 380 L 1250 380" class="edge-path"/><path d="M 1350 500 L 1350 720" class="edge-path"/><path d="M 270 580 L 370 580" class="edge-path"/><path d="M 890 580 L 980 580" class="edge-path"/><path d="M 1450 580 L 1450 720" class="edge-path"/><path d="M 270 740 L 350 740" class="edge-path"/><path d="M 570 760 L 670 760" class="edge-path"/><path d="M 890 760 L 980 760" class="edge-path"/><path d="M 1180 760 L 1250 760" class="edge-path"/><path d="M 1350 780 L 1350 720" class="edge-path"/><path d="M 1250 750 L 1350 750" class="edge-path"/><text x="300" y="75" class="edge-label">flow</text><text x="610" y="75" class="edge-label">validate</text><text x="900" y="75" class="edge-label">process</text><text x="1210" y="75" class="edge-label">vocab</text><text x="340" y="225" class="edge-label">prepare</text><text x="640" y="225" class="edge-label">setup</text><text x="935" y="225" class="edge-label">configure</text><text x="340" y="395" class="edge-label">lora</text><text x="640" y="385" class="edge-label">enhanced</text><text x="935" y="375" class="edge-label">monitor</text><text x="340" y="575" class="edge-label">eval</text><text x="640" y="575" class="edge-label">quality</text><text x="340" y="735" class="edge-label">export</text><text x="670" y="755" class="edge-label">deploy</text><text x="935" y="755" class="edge-label">interface</text><text x="1215" y="755" class="edge-label">metrics</text></g></svg>